<svg width="32" height="32" viewBox="0 0 32 32" fill="none" xmlns="http://www.w3.org/2000/svg">
<circle opacity="0.4" cx="16" cy="16" r="16" fill="#E0E0E0"/>
<g opacity="0.9">
<path d="M16.3174 23.8167C16.3176 23.8165 16.3178 23.8163 16.318 23.8161L19.568 20.5504C19.8115 20.3057 19.8106 19.91 19.5659 19.6665C19.3212 19.423 18.9255 19.4239 18.682 19.6686L16.5 21.8612L16.5 8.625C16.5 8.27981 16.2202 8 15.875 8C15.5298 8 15.25 8.27981 15.25 8.625L15.25 21.8611L13.068 19.6686C12.8245 19.4239 12.4288 19.423 12.1841 19.6665C11.9394 19.91 11.9386 20.3058 12.182 20.5504L15.432 23.8161C15.4322 23.8163 15.4324 23.8165 15.4326 23.8167C15.6769 24.0615 16.0739 24.0607 16.3174 23.8167Z" fill="#F2F2F2"/>
</g>
</svg>
