<svg width="24" height="24" viewBox="0 0 24 24" fill="none" xmlns="http://www.w3.org/2000/svg">
<circle cx="12" cy="12" r="12" fill="#F3BA2F"/>
<path d="M8.7575 10.6677L11.9999 7.42532L15.2439 10.6691L17.1305 8.78254L11.9999 3.6521L6.87102 8.781L8.75756 10.6676L8.7575 10.6677ZM3.6521 11.9999L5.53878 10.113L7.42532 11.9995L5.53864 13.8862L3.6521 11.9999ZM8.7575 13.3323L11.9999 16.5745L15.2438 13.3308L17.1314 15.2164L17.1305 15.2174L11.9999 20.3478L6.87102 15.2188L6.86835 15.2162L8.7577 13.3321L8.7575 13.3323ZM16.5745 12.0007L18.4612 10.1141L20.3478 12.0006L18.4611 13.8873L16.5745 12.0007Z" fill="white"/>
<path d="M13.9133 11.9986H13.9141L11.9999 10.0842L10.5849 11.4988L10.4224 11.6614L10.0871 11.9967L10.0845 11.9993L10.0871 12.002L11.9999 13.915L13.9143 12.0006L13.9152 11.9996L13.9135 11.9986" fill="white"/>
</svg>
